<svg width="289" height="65" xmlns="http://www.w3.org/2000/svg"><g fill="#FFF" fill-rule="nonzero"><path d="M33 5h8.053c6.24 0 8.503.65 10.785 1.87a12.721 12.721 0 015.292 5.292C58.35 14.444 59 16.707 59 22.947V31H33V5zM31 5h-8.053c-6.24 0-8.503.65-10.785 1.87a12.721 12.721 0 00-5.292 5.292C5.65 14.444 5 16.707 5 22.947V31h26V5zM31 59h-8.053c-6.24 0-8.503-.65-10.785-1.87a12.721 12.721 0 01-5.292-5.292C5.65 49.556 5 47.293 5 41.053V33h26v26zM33 59h8.053c6.24 0 8.503-.65 10.785-1.87a12.721 12.721 0 005.292-5.292C58.35 49.556 59 47.293 59 41.053V33H33v26z"/><g><path d="M163.661 54.995a13.905 13.905 0 01-5.452-.964 7.887 7.887 0 01-3.51-2.853 12.564 12.564 0 01-1.83-4.234c-.37-1.583-.563-3.415-.563-5.505V23.2c0-2.065.193-3.873.579-5.432a11.79 11.79 0 011.847-4.123 8.08 8.08 0 013.54-2.716 14.101 14.101 0 015.381-.924c2.096 0 3.895.322 5.38.924a8.007 8.007 0 013.534 2.732 11.773 11.773 0 011.87 4.139c.378 1.55.563 3.359.563 5.4v18.297c0 1.639-.104 3.134-.33 4.451a14.069 14.069 0 01-1.14 3.713 8.951 8.951 0 01-2.087 2.885 8.992 8.992 0 01-3.253 1.791c-1.317.434-2.826.651-4.529.651v.008zM134.93 13.251c-1.936.056-3.453.562-4.57 1.526-1.108.94-1.662 2.379-1.662 4.316 0 1.205.233 2.282.707 3.27a11.33 11.33 0 002.409 3.118l7.773 7.336a27.558 27.558 0 014.746 5.794 12.286 12.286 0 011.735 6.348c0 3.206-.924 5.657-2.787 7.393-1.855 1.735-4.312 2.595-7.363 2.595-3.494 0-6.152-1.044-7.95-3.134-1.807-2.097-2.851-5.03-3.132-8.79l3.694-1.061c.136 1.165.289 2.193.473 3.085.185.9.466 1.768.828 2.628a5.72 5.72 0 003.332 3.431c.803.338 1.735.506 2.787.506 4.143 0 6.231-2.121 6.231-6.364a8.732 8.732 0 00-1.51-5.054 17.578 17.578 0 00-1.654-2.13 55.3 55.3 0 00-2.248-2.306l-7.83-7.473c-2.666-2.547-3.999-5.504-3.999-8.855 0-2.99.883-5.303 2.682-6.95 1.783-1.64 4.208-2.476 7.252-2.476h.184c3.22 0 5.686.852 7.388 2.588 1.735 1.768 2.755 4.62 3.036 8.566l-3.518.9c-.249-2.965-.883-5.2-1.919-6.686-.996-1.406-2.594-2.121-4.794-2.121h-.321zM92.07 54.433H88l-2.185-11.748h-10.56l-2.232 11.748H69l9.315-43.955h4.377l9.371 43.955h.008zm11.122 0h-4.176V10.478h4.176v23.167l11.805-23.167h3.99l-9.138 18.868 11.082 25.087h-4.128L106.75 31.532l-3.557 6.565v16.336zm56.895-3.423c.963.426 2.144.643 3.573.643 1.422 0 2.61-.225 3.566-.66a4.723 4.723 0 002.2-1.944 9.004 9.004 0 001.06-2.877c.209-1.076.321-2.346.321-3.833V22.46c0-1.486-.112-2.748-.33-3.808a8.502 8.502 0 00-1.051-2.845 4.578 4.578 0 00-2.2-1.888 8.965 8.965 0 00-3.566-.627c-1.43 0-2.61.209-3.573.627a4.578 4.578 0 00-2.2 1.888 8.897 8.897 0 00-1.06 2.845 20.204 20.204 0 00-.306 3.808v19.88c0 1.487.097 2.757.305 3.825a9.297 9.297 0 001.06 2.893 4.803 4.803 0 002.2 1.953zM75.85 39.664h9.411L80.54 15.959l-4.698 23.705h.008z"/></g><path d="M189.44 55V35.1h4.19c3.778 0 6.705-.962 8.782-2.887 2.076-1.925 3.115-4.955 3.115-9.09 0-8.433-3.796-12.65-11.387-12.65h-12.81V55h8.11zm2.605-25.593h-2.605V16.194h2.632c1.325 0 2.377.116 3.156.349.779.233 1.365.658 1.759 1.276a5.12 5.12 0 01.752 2.054c.107.752.16 1.817.16 3.196 0 2.417-.402 4.077-1.208 4.982-.805.904-2.354 1.356-4.646 1.356zm22.709 26.103c1.647 0 2.994-.497 4.041-1.49 1.048-.994 1.795-2.225 2.243-3.693.107 1.039.367 2.596.779 4.673h6.794c-.394-2.882-.59-5.541-.59-7.976V32.495c0-3.115-.757-5.523-2.27-7.224-1.513-1.7-3.836-2.551-6.97-2.551-3.24 0-5.733.779-7.478 2.336-1.746 1.558-2.735 4.002-2.968 7.332 0 .09-.004.277-.013.564-.01.286-.014.483-.014.59l7.198.269.107-1.987c.036-2.328.886-3.491 2.551-3.491 1.02 0 1.697.33 2.028.993.331.663.497 1.71.497 3.142v2.659l-1.209.483c-1.898.734-3.303 1.325-4.216 1.773-.913.447-2.064 1.164-3.451 2.148-1.388.985-2.386 2.167-2.994 3.545-.61 1.379-.914 2.99-.914 4.834 0 1.952.64 3.702 1.92 5.25 1.28 1.55 2.923 2.332 4.929 2.35zm2.873-5.827c-.806 0-1.428-.332-1.866-.994-.439-.662-.658-1.567-.658-2.712 0-2.614 1.862-4.95 5.586-7.01v8.755c-.34.448-.793.886-1.357 1.316-.563.43-1.132.645-1.705.645zm27.595 14.958c3.67 0 6.293-.667 7.869-2 1.575-1.334 2.363-3.407 2.363-6.218 0-2.345-.618-4.149-1.853-5.411-1.235-1.262-3.187-2.037-5.855-2.323-.286-.036-1.27-.139-2.954-.309-1.683-.17-2.632-.273-2.846-.309-1.809-.179-2.74-.626-2.793-1.342-.036-.484.25-1.182.859-2.095.269.107.855.237 1.759.39.904.151 1.616.227 2.135.227 6.356 0 9.534-3.634 9.534-10.903a15.86 15.86 0 00-.376-3.424c-.25-1.137-.546-2.019-.886-2.645.43-.269 1.28-.645 2.55-1.128 1.272-.484 2.22-.806 2.847-.967l-1.772-4.19-1.047.484c-.878.43-1.715.976-2.511 1.638-.797.663-1.392 1.236-1.786 1.719-1.253-2.077-3.527-3.115-6.822-3.115-3.204 0-5.653.949-7.344 2.846-1.692 1.898-2.538 4.799-2.538 8.702 0 2.255.295 4.055.886 5.398a8.387 8.387 0 002.659 3.356c-1.379 1.128-2.355 2.109-2.928 2.941-.573.833-.814 1.822-.725 2.968.126 1.647 1.262 2.837 3.41 3.571-2.989 1.827-4.484 4.074-4.484 6.741 0 .698.143 1.33.43 1.893.286.564.649 1.03 1.087 1.397.439.367 1.012.685 1.72.953a15.46 15.46 0 002.067.631 18.09 18.09 0 002.404.35c.93.08 1.75.13 2.457.147.707.018 1.535.027 2.484.027zm-1.504-24.25c-.52 0-.958-.099-1.316-.296a2.362 2.362 0 01-.86-.792c-.214-.331-.384-.774-.51-1.33a10.766 10.766 0 01-.241-1.732c-.036-.6-.054-1.329-.054-2.188 0-2.417.188-4.105.564-5.063.376-.957 1.2-1.436 2.47-1.436 1.254 0 2.06.474 2.418 1.423.358.949.537 2.64.537 5.076 0 2.363-.188 4.01-.564 4.941-.376.931-1.19 1.397-2.444 1.397zm1.45 18.96c-1.629 0-2.878-.094-3.746-.282-.868-.188-1.441-.444-1.719-.766-.277-.322-.416-.77-.416-1.343 0-1.074.546-2.246 1.638-3.518l5.049.484c1.414.125 2.39.407 2.927.846.537.438.779 1.132.725 2.081-.018.877-.38 1.513-1.087 1.907-.708.394-1.831.59-3.37.59zm24.175-3.84c3.438 0 6.002-.963 7.694-2.888 1.692-1.924 2.538-4.677 2.538-8.258v-10.5c0-3.581-.846-6.334-2.538-8.258-1.692-1.925-4.256-2.887-7.694-2.887-3.42 0-5.966.962-7.64 2.887-1.674 1.924-2.511 4.677-2.511 8.258v10.5c0 3.581.837 6.334 2.51 8.258 1.675 1.925 4.222 2.887 7.641 2.887zm.027-5.291c-.501 0-.922-.103-1.262-.31a2.51 2.51 0 01-.806-.751c-.197-.295-.344-.698-.443-1.209-.098-.51-.161-.984-.188-1.423a27.88 27.88 0 01-.04-1.652v-11.52c0-.842.027-1.527.08-2.055a8.74 8.74 0 01.336-1.638c.17-.564.448-.985.833-1.262.385-.278.881-.417 1.49-.417.501 0 .922.103 1.262.31.34.205.609.456.806.751.197.296.345.703.443 1.222.099.52.161.998.188 1.437.027.439.04.99.04 1.651v11.521c0 .842-.026 1.527-.08 2.055a8.74 8.74 0 01-.336 1.638c-.17.564-.447.98-.832 1.249-.385.268-.882.403-1.49.403z"/></g></svg>