<svg width="295" height="65" xmlns="http://www.w3.org/2000/svg"><g fill="#FFF" fill-rule="nonzero"><path d="M33 5h8.053c6.24 0 8.503.65 10.785 1.87a12.721 12.721 0 015.292 5.292C58.35 14.444 59 16.707 59 22.947V31H33V5zM31 5h-8.053c-6.24 0-8.503.65-10.785 1.87a12.721 12.721 0 00-5.292 5.292C5.65 14.444 5 16.707 5 22.947V31h26V5zM31 59h-8.053c-6.24 0-8.503-.65-10.785-1.87a12.721 12.721 0 01-5.292-5.292C5.65 49.556 5 47.293 5 41.053V33h26v26zM33 59h8.053c6.24 0 8.503-.65 10.785-1.87a12.721 12.721 0 005.292-5.292C58.35 49.556 59 47.293 59 41.053V33H33v26zM73.56 54l2.255-11.897H86.45L88.652 54h4.109L83.308 9.474h-4.405L69.503 54h4.056zm12.326-14.958h-9.48l4.726-24.01 4.754 24.01zM103.634 54V37.457l3.598-6.66L117.357 54h4.163l-11.172-25.405 9.211-19.121h-4.028l-11.897 23.471V9.474h-4.217V54h4.217zm32.653.537c3.079 0 5.554-.877 7.425-2.632 1.871-1.754 2.807-4.252 2.807-7.492 0-2.31-.582-4.454-1.746-6.432-1.164-1.979-2.757-3.935-4.78-5.868l-7.842-7.44c-1.146-1.11-1.956-2.161-2.43-3.155-.475-.993-.712-2.099-.712-3.316 0-1.952.56-3.411 1.678-4.378 1.12-.967 2.654-1.477 4.606-1.53h.322c2.22 0 3.832.716 4.834 2.148 1.039 1.504 1.683 3.76 1.934 6.767l3.545-.913c-.287-3.992-1.307-6.884-3.062-8.674-1.719-1.754-4.198-2.632-7.439-2.632h-.188c-3.08.018-5.519.86-7.318 2.525-1.8 1.665-2.699 4.01-2.699 7.036 0 3.401 1.343 6.391 4.028 8.97l7.896 7.573a55.287 55.287 0 012.27 2.336 18.344 18.344 0 011.664 2.162 8.924 8.924 0 011.155 2.444c.242.832.363 1.723.363 2.672 0 4.297-2.095 6.445-6.285 6.445-1.056 0-1.991-.17-2.806-.51-.815-.34-1.486-.788-2.014-1.343-.528-.555-.976-1.266-1.343-2.135a14.284 14.284 0 01-.832-2.658 32.225 32.225 0 01-.47-3.13l-3.733 1.075c.286 3.814 1.338 6.781 3.155 8.903 1.817 2.121 4.49 3.182 8.017 3.182zm27.63.027c1.72 0 3.241-.22 4.566-.658 1.325-.439 2.417-1.047 3.276-1.826.86-.779 1.562-1.75 2.108-2.914a14.363 14.363 0 001.155-3.76c.224-1.343.336-2.846.336-4.511v-18.53c0-2.078-.193-3.904-.577-5.48-.385-1.575-1.012-2.971-1.88-4.189-.869-1.217-2.055-2.14-3.559-2.766-1.504-.626-3.312-.94-5.425-.94-2.112 0-3.92.314-5.424.94-1.504.627-2.69 1.544-3.559 2.753-.868 1.208-1.495 2.6-1.88 4.176-.384 1.575-.577 3.41-.577 5.505v18.477c0 2.112.188 3.97.564 5.572.376 1.603.99 3.035 1.84 4.297.85 1.262 2.032 2.22 3.545 2.874 1.512.653 3.343.98 5.491.98zm0-3.384c-1.432 0-2.631-.215-3.598-.644-.967-.448-1.705-1.11-2.216-1.988a9.229 9.229 0 01-1.074-2.927c-.206-1.074-.309-2.363-.309-3.867V21.612c0-1.504.103-2.788.31-3.853a8.921 8.921 0 011.073-2.887c.51-.86 1.25-1.5 2.216-1.92.967-.421 2.166-.632 3.598-.632 1.433 0 2.632.21 3.6.631.966.421 1.704 1.061 2.215 1.92.51.86.868 1.822 1.074 2.888.206 1.065.309 2.35.309 3.853v20.142c0 1.504-.103 2.793-.31 3.867a9.229 9.229 0 01-1.073 2.927c-.51.878-1.25 1.536-2.216 1.974-.967.439-2.166.658-3.599.658zm29.78-13.535v-3.169h-11.71v3.169h11.71zM205.429 54V32.918h6.526c1.862 0 3.487-.304 4.874-.913 1.388-.608 2.489-1.454 3.304-2.537a11.018 11.018 0 001.799-3.68c.385-1.37.577-2.878.577-4.525 0-1.826-.179-3.437-.537-4.834-.358-1.396-.94-2.627-1.745-3.692-.806-1.066-1.907-1.876-3.304-2.43-1.396-.556-3.07-.833-5.022-.833h-10.688V54h4.216zm5.344-24.197h-5.344V12.59h5.398c2.972 0 4.977.595 6.016 1.786 1.038 1.19 1.557 3.495 1.557 6.915 0 3.151-.586 5.358-1.759 6.62-1.172 1.262-3.128 1.893-5.868 1.893zm22.039 24.707c1.593 0 2.968-.47 4.122-1.41a7.675 7.675 0 002.458-3.504l.59 4.404h3.572c-.197-1.647-.295-3.75-.295-6.311V32.22c0-3.67-.591-6.338-1.773-8.003-1.181-1.665-3.178-2.497-5.988-2.497-2.722 0-4.799.676-6.23 2.027-1.433 1.352-2.212 3.523-2.337 6.513-.018.125-.027.447-.027.967l3.974.134v-1.155c0-3.634 1.469-5.452 4.405-5.452 1.522 0 2.56.55 3.115 1.652.555 1.101.832 3.11.832 6.03v2.282c-1.736.77-3.142 1.423-4.216 1.96a51.997 51.997 0 00-3.222 1.76c-1.075.635-1.903 1.235-2.485 1.799a12.029 12.029 0 00-1.611 1.947 6.728 6.728 0 00-1.007 2.35c-.18.832-.269 1.776-.269 2.833 0 2.023.6 3.72 1.8 5.089 1.2 1.37 2.73 2.054 4.592 2.054zm1.316-3.464c-1.056 0-1.934-.38-2.632-1.141-.698-.761-1.047-1.92-1.047-3.478 0-.555.036-1.061.107-1.518.072-.456.206-.89.403-1.302.197-.412.39-.774.577-1.088.188-.313.493-.649.913-1.007.421-.358.793-.662 1.115-.913.322-.25.81-.564 1.464-.94.653-.376 1.213-.69 1.678-.94a402.657 402.657 0 012.524-1.343v9.91a8.218 8.218 0 01-2.135 2.645c-.904.743-1.893 1.115-2.967 1.115zm25.053 13.4c3.043 0 5.451-.599 7.224-1.799 1.772-1.2 2.658-3.061 2.658-5.585 0-2.095-.67-3.724-2.014-4.888-1.342-1.164-3.32-1.979-5.935-2.444-.197-.054-1.002-.184-2.417-.39-1.414-.205-2.31-.362-2.685-.47-1.773-.286-2.659-.689-2.659-1.208 0-.268.09-.604.269-1.007.179-.403.353-.743.523-1.02.17-.278.43-.676.78-1.196.348-.519.55-.823.603-.913.269.108.752.22 1.45.336.699.116 1.29.175 1.773.175 3.044 0 5.268-.999 6.674-2.995 1.405-1.996 2.108-4.704 2.108-8.124 0-.77-.103-1.727-.31-2.873-.205-1.146-.442-2.041-.71-2.686.447-.519 1.212-1.056 2.295-1.611 1.084-.555 2.064-.94 2.941-1.155l-1.074-2.82-.833.35c-.913.393-1.772.935-2.578 1.624-.806.69-1.378 1.33-1.719 1.92-1.36-2.631-3.643-3.947-6.848-3.947-1.486 0-2.802.29-3.947.873a7.346 7.346 0 00-2.78 2.417c-.707 1.029-1.24 2.202-1.598 3.518-.358 1.316-.537 2.743-.537 4.283 0 4.548 1.325 7.788 3.975 9.722-2.525 2.596-3.787 4.735-3.787 6.418 0 .591.35 1.142 1.047 1.652.699.51 1.531.9 2.498 1.168a11.62 11.62 0 00-3.733 3.075c-1.02 1.28-1.53 2.69-1.53 4.23 0 .984.259 1.83.778 2.538.52.707 1.271 1.266 2.256 1.678.985.412 2.117.707 3.397.886 1.28.18 2.762.269 4.445.269zm-.43-23.31c-3.545 0-5.317-2.775-5.317-8.325 0-.788.04-1.535.12-2.242.081-.708.242-1.437.484-2.19.242-.751.555-1.396.94-1.933.385-.537.904-.98 1.557-1.33.654-.348 1.401-.523 2.243-.523 3.473 0 5.21 2.74 5.21 8.218 0 .895-.032 1.687-.094 2.377-.063.689-.202 1.423-.416 2.202-.215.779-.502 1.428-.86 1.947-.358.52-.868.949-1.53 1.289-.663.34-1.442.51-2.337.51zm.376 20.088c-2.614 0-4.494-.273-5.64-.819-1.146-.546-1.718-1.428-1.718-2.645 0-1.97 1.342-3.787 4.028-5.452l4.082.537c2.345.43 3.93.967 4.753 1.612.824.644 1.236 1.548 1.236 2.712 0 1.36-.605 2.377-1.813 3.048-1.209.671-2.851 1.007-4.928 1.007zm23.147-6.714c1.63 0 2.999-.26 4.109-.779A5.921 5.921 0 00289 51.368c.636-1.056 1.088-2.296 1.357-3.72.268-1.423.402-3.137.402-5.142v-8.809c0-4.064-.622-7.076-1.866-9.037-1.244-1.96-3.451-2.94-6.62-2.94-3.151 0-5.353.984-6.606 2.954-1.254 1.97-1.88 4.977-1.88 9.023v8.809c0 2.005.134 3.72.403 5.143.268 1.423.72 2.663 1.356 3.72a5.921 5.921 0 002.618 2.362c1.11.52 2.48.78 4.109.78zm0-3.034c-.68 0-1.271-.09-1.772-.269a2.72 2.72 0 01-1.236-.873 5.624 5.624 0 01-.779-1.289c-.197-.456-.344-1.052-.443-1.786a22.708 22.708 0 01-.188-2.081 61.737 61.737 0 01-.04-2.457v-9.6c.004-.825.017-1.524.04-2.096.027-.653.09-1.347.188-2.081.099-.734.246-1.33.443-1.786.197-.457.457-.886.78-1.29a2.72 2.72 0 011.235-.872c.5-.179 1.092-.268 1.772-.268.806 0 1.486.147 2.041.443.555.295.99.667 1.303 1.114.313.448.55 1.083.711 1.907.161.823.264 1.611.309 2.363.045.752.067 1.728.067 2.927v9.239c0 1.2-.022 2.175-.067 2.927a17.85 17.85 0 01-.309 2.363c-.16.824-.398 1.46-.711 1.907-.314.448-.748.82-1.303 1.114-.555.296-1.235.444-2.041.444z"/></g></svg>