<svg width="185" height="64" xmlns="http://www.w3.org/2000/svg"><defs><linearGradient x1="21.69%" y1="19.05%" x2="93.384%" y2="80.193%" id="a"><stop stop-color="#E0080D" offset="0%"/><stop stop-color="#C00C22" offset="100%"/></linearGradient><linearGradient x1="16.959%" y1="22.744%" x2="87.86%" y2="73.426%" id="b"><stop stop-color="#4A4A4C" offset="0%"/><stop stop-color="#010101" offset="100%"/></linearGradient><linearGradient x1="13.801%" y1="26.833%" x2="80.578%" y2="67.186%" id="c"><stop stop-color="#92BD10" offset="0%"/><stop stop-color="#2F882B" offset="100%"/></linearGradient><linearGradient x1="18.626%" y1="26.923%" x2="68.391%" y2="67.874%" id="d"><stop stop-color="#FAC500" offset="0%"/><stop stop-color="#F1930B" offset="100%"/></linearGradient><linearGradient x1="18.035%" y1="26.814%" x2="72.522%" y2="81.017%" id="e"><stop stop-color="#209CD4" offset="0%"/><stop stop-color="#104493" offset="100%"/></linearGradient></defs><g fill="none" fill-rule="evenodd"><path d="M34.449 35.928h12.5a2.5 2.5 0 012.5 2.5v12.5a2.5 2.5 0 01-2.5 2.5h-12.5a2.5 2.5 0 01-2.5-2.5v-6.25l-3.75-3.75h3.75v-2.5a2.5 2.5 0 012.5-2.5z" fill="url(#a)" transform="rotate(10 27.832 61.232)"/><path d="M14.613 35.121h12.5a2.5 2.5 0 012.5 2.5v12.5a2.5 2.5 0 01-2.5 2.5h-12.5a2.5 2.5 0 01-2.5-2.5v-6.25l-3.75-3.75h3.75v-2.5a2.5 2.5 0 012.5-2.5z" fill="url(#b)" transform="rotate(82 19.306 46.346)"/><path d="M9.25 16.007h12.5a2.5 2.5 0 012.5 2.5v12.5a2.5 2.5 0 01-2.5 2.5H9.25a2.5 2.5 0 01-2.5-2.5v-6.25L3 21.007h3.75v-2.5a2.5 2.5 0 012.5-2.5z" fill="url(#c)" transform="rotate(154 14.956 25.972)"/><path d="M25.772 5h12.5a2.5 2.5 0 012.5 2.5V20a2.5 2.5 0 01-2.5 2.5h-12.5a2.5 2.5 0 01-2.5-2.5v-6.25L19.522 10h3.75V7.5a2.5 2.5 0 012.5-2.5z" fill="url(#d)" transform="rotate(-134 32.199 14.067)"/><path d="M41.346 17.312h12.5a2.5 2.5 0 012.5 2.5v12.5a2.5 2.5 0 01-2.5 2.5h-12.5a2.5 2.5 0 01-2.5-2.5v-6.25l-3.75-3.75h3.75v-2.5a2.5 2.5 0 012.5-2.5z" fill="url(#e)" transform="rotate(-62 49.136 24.681)"/><path d="M92.825 53c9.428 0 15.769-5.983 15.769-14.792V13h-7.113v25.152c0 5.319-3.473 8.31-8.712 8.31-5.238 0-8.656-2.991-8.656-8.254V13H77v25.208C77 47.017 83.34 53 92.825 53zm49.07-.665v-6.15h-17.203V35.605h13.178v-6.15h-13.178V19.15h16.32V13H117.58v39.335h24.316zm9.426 0l3.308-10.083h13.73l3.308 10.083H179L165.216 13h-7.444l-13.785 39.335h7.334zm15.273-15.9h-10.256l3.474-10.526c.772-2.216 1.654-6.095 1.654-6.095h.11s.828 3.879 1.544 6.095l3.474 10.526z" fill="#333" fill-rule="nonzero"/></g></svg>