<svg width="113" height="64" xmlns="http://www.w3.org/2000/svg"><path d="M64.953 53.952c.09-.12.216-.12.325-.18 1.588-.715 2.509-2.047 2.942-3.857.253-1.034.361-2.107.361-3.181.018-8.172 0-16.344.018-24.516 0-.278-.072-.338-.306-.338h-6.68c-.253 0-.307.06-.307.338V45.72c0 .577-.072 1.133-.433 1.57-.343.398-.795.538-1.264.597-.578.1-1.173.06-1.77.04-.252 0-.288.1-.288.358v5.706c.018.219-.036.279-.253.279-2.148.1-4.278.198-6.427.278-1.21.06-2.419.1-3.646.16-2.347.079-4.712.178-7.06.277l-5.487.239-7.077.298c-1.823.08-3.647.16-5.488.239-1.932.08-3.863.199-5.795.239-1.805.02-3.719-1.015-4.062-3.719-.307-2.445-.632-4.89-.939-7.336-.325-2.565-.65-5.13-.993-7.695-.36-2.843-.74-5.667-1.1-8.51-.38-2.982-.76-5.985-1.156-8.987-.343-2.684-.704-5.368-1.03-8.053-.126-1.093.037-2.127.795-2.942.487-.537 1.12-.756 1.787-.756 1.138-.02 2.293.1 3.43.16 2.149.099 4.297.218 6.445.317l6.806.358 5.669.299 5.669.298 6.824.358 6.787.358c2.275.099 4.532.218 6.806.338l5.67.298 5.668.298 6.806.358 6.824.358c2.256.12 4.531.238 6.788.358 1.895.1 3.79.179 5.686.278 1.752.1 3.503.16 5.272.298 1.21.1 2.256.597 2.87 1.83.415.815.397 1.71.307 2.604-.144 1.491-.27 3.003-.415 4.514-.144 1.69-.307 3.38-.451 5.07-.145 1.491-.271 2.962-.398 4.434-.144 1.51-.27 3.002-.415 4.493a334.382 334.382 0 01-.397 4.434c-.144 1.73-.307 3.44-.451 5.15a186.855 186.855 0 00-.29 3.161c-.18 1.75-1.209 3.977-3.736 4.136-1.372.08-2.744.119-4.116.179l-7.077.298-5.488.238c-2.51.12-5.037.24-7.564.339-1.661.079-3.322.139-4.983.198-1.065.04-2.13.1-3.213.14zm-19.28-22.369c-1.409 0-2.817-.02-4.207 0-.253 0-.271-.08-.235-.298.289-1.471.83-2.784 1.932-3.718 2.004-1.69 5.398-1.352 6.661 2.187.18.497.271 1.014.325 1.531.036.219-.018.298-.234.298-1.427-.02-2.835 0-4.243 0zm43.02 2.605c-.019 1.451-.235 2.943-.885 4.315-1.39 2.942-4.55 2.803-6.012 1.47-.812-.775-1.3-1.769-1.57-2.882-.542-2.287-.506-4.533.252-6.76.415-1.233 1.102-2.227 2.257-2.724 1.697-.716 4.044-.378 5.181 2.346.56 1.312.758 2.724.776 4.235zm-39.356 1.869c2.6 0 5.2 0 7.799.02.27 0 .325-.1.325-.358.054-2.306-.18-4.573-.921-6.76-1.065-3.082-2.87-5.428-5.669-6.72-2.563-1.214-5.253-1.412-7.943-.697-4.062 1.114-6.914 3.798-8.358 8.152-.849 2.526-.867 5.15-.343 7.755.884 4.334 3.213 7.277 7.04 8.748 1.968.756 4.008.915 6.066.756 1.805-.16 3.538-.637 5.145-1.59 2.275-1.373 3.791-3.42 4.531-6.165.055-.238.036-.298-.216-.298h-6.3c-.181 0-.272.06-.344.239a3.935 3.935 0 01-1.552 1.77c-1.12.675-2.311.795-3.539.576-1.281-.239-2.31-.935-3.015-2.147-.523-.895-.74-1.91-.848-2.963-.018-.258.036-.318.27-.318h7.872zm34.932-14.892c-.848 0-1.66.08-2.49.258-3.124.676-5.633 2.426-7.33 5.428-1.878 3.261-2.275 6.82-1.499 10.538.74 3.619 2.6 6.363 5.579 8.112 2.581 1.531 5.361 1.85 8.214 1.253 3.79-.815 6.553-3.142 8.16-7.039 1.1-2.664 1.317-5.467.83-8.33-.47-2.764-1.625-5.13-3.538-7.02-2.257-2.226-4.947-3.18-7.926-3.2zM19.965 33.452c.018 1.61-.036 3.639.018 5.647.036 1.034.126 2.068.343 3.082.397 1.73 1.263 3.042 2.834 3.678 1.137.477 2.329.597 3.538.656 1.59.08 3.16-.1 4.748-.199.253-.02.29-.099.29-.357v-5.17c0-.437 0-.417-.398-.398-.758.06-1.516.16-2.293.06-1.173-.14-1.805-.875-1.805-2.187V27.328c0-.218.054-.278.253-.258h3.935c.235 0 .307-.04.307-.318-.018-1.531 0-3.042 0-4.573 0-.239-.036-.299-.253-.299-1.317 0-2.617 0-3.917.02-.253 0-.325-.06-.325-.358v-6.76c0-.238-.054-.298-.253-.298-2.256.02-4.495.02-6.734 0-.234 0-.306.06-.306.318.018 2.267.018 4.514.018 6.78 0 .239-.036.318-.271.318-1.065-.02-2.112-.02-3.16-.02-.198 0-.252.06-.234.259v4.672c-.018.2.036.259.235.259h3.123c.234-.02.307.04.307.318-.018 1.889 0 3.778 0 6.064zm44.97-14.594c1.137 0 2.256-.02 3.376 0 .234 0 .288-.08.288-.318-.018-1.849-.018-3.698 0-5.547 0-.219-.036-.298-.252-.298-2.275.02-4.532.02-6.806 0-.199 0-.235.08-.235.278v5.607c0 .219.054.278.253.278 1.119-.02 2.256 0 3.376 0z" fill="#FFF" fill-rule="nonzero"/></svg>